# xmcd
# 
# Track frame offsets:
#     150
#     3288
#     22042
#     39639
#     55009
#     74987
#     84349
#     102032
# 
# Disc length: 1575
# 
# Revision: 2
# Processed by: cddbd v1.5.2PL0 Copyright (c) Steve Scherf et al.
# Submitted via: fre:ac v1.0.17
# 
DISCID=60062508
DTITLE=Denshi Jision - 現代日本における理系男子の苦悩に関する研究
DYEAR=2015
DGENRE=Rock
TTITLE0=Life Is An Experiment.
TTITLE1=非実在性少女
TTITLE2=深夜あにめーしょん
TTITLE3=リトマスティック・ラブ
TTITLE4=３次元なあの娘とキスがしたい。
TTITLE5=電波ジャンク
TTITLE6=キミと炎色反応
TTITLE7=つくばサイエンスシティ
EXTD=
EXTT0=
EXTT1=
EXTT2=
EXTT3=
EXTT4=
EXTT5=
EXTT6=
EXTT7=
PLAYORDER=
